<svg id="Layer_1" data-name="Layer 1" xmlns="http://www.w3.org/2000/svg" viewBox="0 0 306.61 392.85">
  <defs>
    <style>
      .cls-1{fill:#e9c6a0}.cls-3{fill:#c6a56f}.cls-4{fill:#dcd8d7}.cls-5{fill:#c6252a}.cls-6{fill:#7d461d}.cls-7{fill:#f3ca7a}.cls-8{fill:#b45b1f}.cls-9{fill:#fff}.cls-10{fill:#663f00}.cls-12{fill:#de8d32}.cls-13{fill:#a86934}.cls-14{fill:#a50e03}
    </style>
  </defs>
  <path class="cls-1" d="M257.92 234.65h-18.37v-60.18l25.34-12.91-6.97 73.09zM215.87 376.18h-26.38l.52-115.67h30.83l-4.97 115.67zM156.84 376.18h26.38l-.53-115.67h-30.82l4.97 115.67z"/>
  <path fill="#d4975e" d="M165.97 116.48h40.77v51.01h-40.77z"/>
  <path class="cls-1" d="M278 111.55c0 20.87-13.29 37.78-29.69 37.78s-29.69-16.91-29.69-37.78 13.28-37.78 29.68-37.78S278 90.68 278 111.55z" transform="translate(-61.95 -25.88)"/>
  <path class="cls-3" d="M142.05 164.93h88.61v77.51h-88.61z"/>
  <path class="cls-4" d="M298.09 304.87c-16.24 18.88-83.33 18.88-99.58 0-6-7 5.48-36.56 5.48-36.56h88.61s11.52 29.56 5.49 36.56z" transform="translate(-61.95 -25.88)"/>
  <path class="cls-5" d="M252.06 226a3.76 3.76 0 11-3.76-3.77 3.76 3.76 0 013.76 3.77zM252.06 196.58a3.76 3.76 0 11-3.76-3.76 3.75 3.75 0 013.76 3.76zM252.06 250.45a3.76 3.76 0 11-3.76-3.76 3.76 3.76 0 013.76 3.76z" transform="translate(-61.95 -25.88)"/>
  <path class="cls-3" d="M310.52 150.94l-32.63-7.58s-16.87 15.28-29.5 15.28c-13.63 0-29.68-15.28-29.68-15.28l-32.62 7.58-16.32 36.49 25.33 12.91 8.9-9.54h88.6l8.9 9.54 25.33-12.91z" transform="translate(-61.95 -25.88)"/>
  <path class="cls-6" d="M203.86 309.36a42.64 42.64 0 006.89 3.5l12.65-44.55h-7.88zM238.54 268.31h-7.64L225.38 317c2.43.44 4.94.83 7.51 1.13zM252.09 319v-50.69h-7.58V319q3.8.08 7.58 0zM281.08 268.31h-7.89l12.67 44.55a42.25 42.25 0 006.89-3.5zM265.71 268.31h-7.64l5.65 49.83c2.56-.3 5.06-.69 7.5-1.13z" transform="translate(-61.95 -25.88)"/>
  <path class="cls-7" d="M129.53 123.81l19.87 41.12h22.88l-22.17-45.89-20.58 4.77z"/>
  <path class="cls-8" d="M118.46 137.77l13.25 15.58-16.92-7.36 3.67-8.22z"/>
  <path class="cls-6" d="M199.1 183.26l-24.39-10.61 5.29-11.84zm-20.34-12.18l9.46 4.11-7.41-8.7z" transform="translate(-61.95 -25.88)"/>
  <path class="cls-7" d="M243.18 123.81l-19.87 41.12h-22.87l22.17-45.89 20.57 4.77z"/>
  <path class="cls-8" d="M254.25 137.77l-13.26 15.58 16.93-7.36-3.67-8.22z"/>
  <path class="cls-6" d="M297.5 183.26l19.1-22.45 5.3 11.84zm18.29-16.77l-7.41 8.7 9.46-4.11z" transform="translate(-61.95 -25.88)"/>
  <path class="cls-8" d="M207.69 154.47a2.18 2.18 0 11-2.16-2.18 2.17 2.17 0 012.16 2.18zM212.06 163.65a2.19 2.19 0 11-2.18-2.18 2.18 2.18 0 012.18 2.18zM216.43 172.83a2.19 2.19 0 11-2.18-2.18 2.17 2.17 0 012.18 2.18zM220.8 182a2.19 2.19 0 11-2.19-2.18 2.19 2.19 0 012.19 2.18zM288.9 154.47a2.18 2.18 0 102.18-2.18 2.19 2.19 0 00-2.18 2.18zM284.53 163.65a2.19 2.19 0 102.19-2.18 2.18 2.18 0 00-2.19 2.18zM280.16 172.83a2.19 2.19 0 102.2-2.18 2.18 2.18 0 00-2.2 2.18zM275.81 182a2.18 2.18 0 004.35 0 2.18 2.18 0 10-4.35 0z" transform="translate(-61.95 -25.88)"/>
  <path class="cls-6" d="M142.05 183.37h88.79v2.84h-88.79zM142.05 212.75h88.79v2.84h-88.79z"/>
  <path class="cls-7" d="M187.8 243.66l-2.9-2.44 15.09-17.95-12.94-9.07 13.19-10.88-12.31-18.16 14.91-24.59 3.23 1.97-13.64 22.5 12.89 19.01-12.01 9.9 12.25 8.59-17.76 21.12z"/>
  <path class="cls-7" d="M184.9 243.66l-17.75-21.12 12.25-8.59-12-9.9 12.87-19-15.89-25.75 3.22-1.99 17.18 27.84-12.31 18.17 13.18 10.88-12.94 9.07 15.09 17.95-2.9 2.44z"/>
  <path class="cls-9" d="M268.76 107.22s-2.86 4.33-6.38 4.33-6.37-4.33-6.37-4.33 2.85-4.32 6.37-4.32 6.38 4.32 6.38 4.32z" transform="translate(-61.95 -25.88)"/>
  <path class="cls-10" d="M264.93 106.89a2.56 2.56 0 11-2.55-2.55 2.55 2.55 0 012.55 2.55z" transform="translate(-61.95 -25.88)"/>
  <path class="cls-9" d="M262.27 106.08a.82.82 0 11-.82-.8.81.81 0 01.82.8z" transform="translate(-61.95 -25.88)"/>
  <path class="cls-1" d="M273.1 106.36c0 1.77-4.8 6.42-10.72 6.42s-10.72-4.65-10.72-6.42 4.8 2.2 10.72 2.2 10.72-3.98 10.72-2.2z" transform="translate(-61.95 -25.88)"/>
  <path class="cls-9" d="M241 107.22s-2.85 4.33-6.37 4.33-6.38-4.33-6.38-4.33 2.85-4.32 6.38-4.32 6.37 4.32 6.37 4.32z" transform="translate(-61.95 -25.88)"/>
  <path class="cls-10" d="M237.21 106.89a2.55 2.55 0 11-2.55-2.55 2.55 2.55 0 012.55 2.55z" transform="translate(-61.95 -25.88)"/>
  <path class="cls-9" d="M234.54 106.08a.81.81 0 01-.81.81.81.81 0 11.81-.81z" transform="translate(-61.95 -25.88)"/>
  <path class="cls-1" d="M245.74 105.13c-.66 1.65-5.65 1.19-11.15-1s-9.41-5.32-8.75-7 5.65-1.2 11.15 1 9.41 5.35 8.75 7zM250.68 105.13c.67 1.65 5.66 1.19 11.16-1s9.41-5.32 8.75-7-5.65-1.2-11.14 1-9.45 5.35-8.77 7z" transform="translate(-61.95 -25.88)"/>
  <path class="cls-1" d="M245.27 106.36c0 1.77-4.81 6.42-10.73 6.42s-10.71-4.65-10.71-6.42 4.79 2.2 10.71 2.2 10.73-3.98 10.73-2.2z" transform="translate(-61.95 -25.88)"/>
  <path class="cls-5" d="M199.07 0h-25.43l1.56 13.49h22.31L199.07 0z"/>
  <path fill="#8c0c03" d="M175.2 13.49l4.7 35.28h12.91l4.7-35.28H175.2z"/>
  <path class="cls-7" d="M248.3 66.86c-18.2 0-33 14-33 40.42l3.55 33.34s12.7 24.54 24.51 27.54l-3.1-55.09a12.93 12.93 0 01-5.74 1.29c-5.7 0-9.68-8.59-10.12-9.57l-.6-1.33 1.15-.89a17.23 17.23 0 019.57-3.3c5.67 0 10.29 3.38 10.29 7.54a5.88 5.88 0 01-.45 2.23l-.58 9.87 4.48 1.81 4.48-1.81-.57-9.87a5.7 5.7 0 01-.45-2.23c0-4.16 4.61-7.54 10.28-7.54a17.23 17.23 0 019.57 3.3l1.16.89-.6 1.33c-.43 1-4.43 9.57-10.13 9.57a12.87 12.87 0 01-5.8-1.33l-4.18 55.36c11.66-2.85 25.65-27.77 25.65-27.77l3.55-33.34c.04-26.41-14.71-40.42-32.92-40.42z" transform="translate(-61.95 -25.88)"/>
  <path class="cls-12" d="M279.47 124.07l1.79-16.79c0-26.41-14.75-40.42-33-40.42s-33 14-33 40.42l1.8 16.81 4.46 15.71c3.1 5.86 11.17 19 18.77 23.93l-2.65-46.9a16.44 16.44 0 01-3.16.31c-7.3 0-11.83-9.35-12.66-11.22l-1.49-3.33 2.89-2.23a20 20 0 0111.26-3.87c7.2 0 12.46 4.63 12.46 10.32 0 1 .13 2.81.13 2.81l-.44 7.46 1.59.65 1.6-.65-.44-7.46s.13-1.85.13-2.81c0-5.69 5.25-10.32 12.45-10.32a19.93 19.93 0 0111.27 3.88l2.88 2.22-1.49 3.33c-.83 1.87-5.35 11.22-12.66 11.22a16.42 16.42 0 01-3.3-.34l-3.57 47.14c7.7-5 16.41-18.22 19.83-24.2z" transform="translate(-61.95 -25.88)"/>
  <path class="cls-8" d="M256.09 151.82l-.92 12.12c7.7-5 16.41-18.22 19.83-24.2l4.47-15.67.63-5.92.95-8.81a149.55 149.55 0 01-24.96 42.48zM240.37 163.73l-.74-13a149.27 149.27 0 01-24.06-41.43l.71 6.77.86 8 4.46 15.71c3.1 5.88 11.17 18.98 18.77 23.95zM253.17 89.27c1.08 0 2.21-.72 1.37.39a3.71 3.71 0 013-1.54v-20a33.31 33.31 0 00-18.43 0v19.96c3.35.27 6.6 1 10 1.09 1.32.06 2.7.16 4.06.1z" transform="translate(-61.95 -25.88)"/>
  <path class="cls-7" d="M280.46 97.19l-18.77-11.34a1.45 1.45 0 00-1.06-.16l-12.33 3.16-12.3-3.16a1.48 1.48 0 00-1.07.16l-18.78 11.34c-.19 1.14-.36 2.32-.47 3.52l20.17-12.17L248 91.63a1.61 1.61 0 00.69 0l12.1-3.09 20.18 12.17c-.16-1.2-.32-2.38-.51-3.52z" transform="translate(-61.95 -25.88)"/>
  <path class="cls-12" d="M193.16 29.83l-1.42 17.58h-10.77l-1.42-17.58h-2.76l2.42 22.56h14.28l2.42-22.56h-2.75z"/>
  <path class="cls-12" d="M182.07 50.99h8.57v3.79h-8.57z"/>
  <path class="cls-1" d="M114.79 234.65l13.82 2.63 4.55-62.81-25.33-12.91 6.96 73.09z"/>
  <path class="cls-1" d="M297.2 416.74h-45.76v-14.69h26.38s17 2.94 19.38 5.29c2.6 2.59 0 9.4 0 9.4z" transform="translate(-61.95 -25.88)"/>
  <path class="cls-12" d="M206.87 341.54l-2.61 5.87h-14.77l.03 28.77h26.52l2.16-37.05-11.33 2.41z"/>
  <path class="cls-13" d="M189.49 390.86h45.77v1.99h-45.77z"/>
  <path class="cls-13" d="M288.48 403.41c-2.26 2.32-4.67 6.36-5 13.25l1.53.08h1.52c.4-7.24 3.29-10.68 5.23-12.2a92.45 92.45 0 00-3.28-1.13z" transform="translate(-61.95 -25.88)"/>
  <path class="cls-1" d="M199.4 416.74h45.77v-14.69h-26.39s-17 2.94-19.38 5.29c-2.59 2.59 0 9.4 0 9.4z" transform="translate(-61.95 -25.88)"/>
  <path class="cls-12" d="M165.84 341.54l2.6 5.87h14.78l-.04 28.77h-26.52l-2.16-37.05 11.34 2.41z"/>
  <path class="cls-13" d="M137.46 390.86h45.77v1.99h-45.77z"/>
  <path class="cls-13" d="M208.13 403.41c2.25 2.32 4.66 6.36 5 13.25l-1.52.08h-1.53c-.39-7.24-3.29-10.68-5.22-12.2 1.14-.41 2.22-.79 3.27-1.13z" transform="translate(-61.95 -25.88)"/>
  <path class="cls-1" d="M321.75 267.19c0 3.76-5.21 6.8-11.66 6.8s-11.65-3-11.65-6.8 5.21-14.87 11.65-14.87 11.66 11.12 11.66 14.87z" transform="translate(-61.95 -25.88)"/>
  <path class="cls-7" d="M346.31 293.75a75.95 75.95 0 110-107.41 76 76 0 010 107.41z" transform="translate(-61.95 -25.88)"/>
  <path class="cls-5" d="M242.89 190.33a70.38 70.38 0 000 99.42l99.43-99.42a70.39 70.39 0 00-99.43 0z" transform="translate(-61.95 -25.88)"/>
  <path class="cls-14" d="M342.32 190.33l-99.43 99.42a70.3 70.3 0 1099.43-99.42z" transform="translate(-61.95 -25.88)"/>
  <path class="cls-6" d="M339.94 196.5a2.68 2.68 0 110-3.79 2.69 2.69 0 010 3.79zM295.3 175.78a2.69 2.69 0 11-2.7-2.68 2.68 2.68 0 012.7 2.68zM249.06 192.71a2.68 2.68 0 11-3.78 0 2.65 2.65 0 013.78 0zM228.34 237.36a2.68 2.68 0 11-2.68 2.69 2.67 2.67 0 012.68-2.69zM245.27 283.6a2.68 2.68 0 110 3.78 2.66 2.66 0 010-3.78zM289.92 304.31a2.69 2.69 0 112.68 2.69 2.69 2.69 0 01-2.68-2.69zM336.15 287.38a2.68 2.68 0 113.8 0 2.67 2.67 0 01-3.8 0zM356.87 242.72a2.68 2.68 0 010-5.36 2.68 2.68 0 110 5.36z" transform="translate(-61.95 -25.88)"/>
  <path class="cls-7" d="M260.48 274.82a2.61 2.61 0 01-1.87-.78 2.64 2.64 0 010-3.73l66.16-66.16a2.64 2.64 0 113.74 3.74L262.34 274a2.61 2.61 0 01-1.86.82z" transform="translate(-61.95 -25.88)"/>
  <path class="cls-7" d="M332 211.33c-2.94 2.94-14.23 3.6-14.23 3.6s.66-11.29 3.6-14.23A7.52 7.52 0 11332 211.33zM263.52 279.76c2.94-2.93 3.6-14.23 3.6-14.23s-11.29.66-14.23 3.6a7.52 7.52 0 0010.63 10.63zM326.63 277.09a2.68 2.68 0 01-1.87-.77l-66.15-66.17a2.64 2.64 0 013.73-3.73l66.16 66.16a2.64 2.64 0 01-1.87 4.51z" transform="translate(-61.95 -25.88)"/>
  <path class="cls-7" d="M321.32 279.75c-2.93-2.92-3.6-14.21-3.6-14.21s11.29.66 14.23 3.59a7.51 7.51 0 11-10.63 10.62zM252.9 211.33c2.93 2.94 14.21 3.6 14.21 3.6s-.66-11.29-3.59-14.23a7.51 7.51 0 10-10.62 10.63zM329.24 261.66a2.66 2.66 0 01-1.87-.77l-20.66-20.66 20.66-20.66a2.64 2.64 0 013.73 3.74l-16.92 16.92 16.92 16.92a2.64 2.64 0 01-1.86 4.51zM292.43 225.94l-20.67-20.67a2.64 2.64 0 013.73-3.73l16.94 16.93 16.92-16.93a2.64 2.64 0 113.74 3.73zM311.21 279.7a2.66 2.66 0 01-1.87-.77L292.42 262l-16.93 16.93a2.64 2.64 0 01-3.74-3.74l20.67-20.66 20.66 20.66a2.65 2.65 0 010 3.74 2.68 2.68 0 01-1.87.77zM255.59 261.67a2.65 2.65 0 01-1.87-4.51l16.93-16.92-16.93-16.93a2.64 2.64 0 113.74-3.74l20.65 20.67-20.65 20.65a2.63 2.63 0 01-1.87.78z" transform="translate(-61.95 -25.88)"/>
  <path class="cls-6" d="M13.77 120.99L.01 115.68l101.84 101.84 4.22-4.23-92.3-92.3z"/>
  <path class="cls-3" d="M0 115.68l5.32 13.75 92.31 92.31 4.22-4.22L.01 115.68H0z"/>
  <path class="cls-5" transform="rotate(-44.99 112.47 320.372)" d="M171.69 240.13h5.97v36.76h-5.97z"/>
  <path class="cls-14" d="M106.07 213.29l-4.22 4.23 25.99 25.99 4.23-4.23-26-25.99z"/>
  <path class="cls-4" d="M193.75 261.86c3.06 3.06 1.54 6.68-1.63 9.85s-6.8 4.7-9.86 1.64c-1.69-1.7 3.06-2.1 6.23-5.27s3.56-7.91 5.26-6.22zM168.8 248.39a12.8 12.8 0 000-18.07s-1.73 3.73-8 10c-5.84 5.84-10 8-10 8a12.77 12.77 0 0018 .07z" transform="translate(-61.95 -25.88)"/>
  <path class="cls-1" d="M190.56 267.19c0 3.76-1.87 6.16-8.3 6.16s-15-9.91-15-13.66 5.22-7.37 11.66-7.37 11.64 11.12 11.64 14.87z" transform="translate(-61.95 -25.88)"/>
</svg>
