<svg id="pillar" data-name="pillar" xmlns="http://www.w3.org/2000/svg" viewBox="0 0 139.3 535.75"><defs><style>.cls-1{fill:#3d3a3b;}.cls-2{fill:#505050;}.cls-3{fill:#fff;}.cls-4{fill:#716558;}</style></defs><title>column</title><path class="cls-1" d="M656.93,328.31H583c-9.19,0-9.19-14.66-9.19-14.66h92.29s0,14.66-9.2,14.66" transform="translate(-550.7 -274.93)"/><path class="cls-2" d="M687.29,296.49a21.54,21.54,0,0,0-21-21.54v0H574.4v0l-.56,0a21.56,21.56,0,1,0,0,43.11H666.3a21.55,21.55,0,0,0,21-21.54" transform="translate(-550.7 -274.93)"/><path class="cls-3" d="M588.76,296.49a14.93,14.93,0,1,1-14.92-14.93,14.93,14.93,0,0,1,14.92,14.93" transform="translate(-550.7 -274.93)"/><path class="cls-2" d="M583.29,296.49a9.45,9.45,0,1,1-9.45-9.45,9.46,9.46,0,0,1,9.45,9.45" transform="translate(-550.7 -274.93)"/><path class="cls-3" d="M578.25,296.49a4.41,4.41,0,1,1-4.41-4.41,4.42,4.42,0,0,1,4.41,4.41" transform="translate(-550.7 -274.93)"/><path class="cls-3" d="M681.8,296.49a14.93,14.93,0,1,1-14.93-14.93,14.94,14.94,0,0,1,14.93,14.93" transform="translate(-550.7 -274.93)"/><path class="cls-2" d="M676.32,296.49a9.45,9.45,0,1,1-9.45-9.45,9.45,9.45,0,0,1,9.45,9.45" transform="translate(-550.7 -274.93)"/><path class="cls-3" d="M671.28,296.49a4.41,4.41,0,1,1-4.41-4.41,4.42,4.42,0,0,1,4.41,4.41" transform="translate(-550.7 -274.93)"/><path class="cls-3" d="M664.22,287H573.3a2.66,2.66,0,0,1-2.65-2.66v-.17a2.65,2.65,0,0,1,2.65-2.65h90.92a2.65,2.65,0,0,1,2.65,2.65v.17a2.66,2.66,0,0,1-2.65,2.66" transform="translate(-550.7 -274.93)"/><path class="cls-3" d="M635.51,297.56H602a2.66,2.66,0,0,1-2.65-2.66v-.17a2.65,2.65,0,0,1,2.65-2.65h33.51a2.66,2.66,0,0,1,2.66,2.65v.17a2.66,2.66,0,0,1-2.66,2.66" transform="translate(-550.7 -274.93)"/><path class="cls-3" d="M643.71,308.68H595.87a2.66,2.66,0,0,1-2.66-2.66v-.17a2.66,2.66,0,0,1,2.66-2.65h47.84a2.65,2.65,0,0,1,2.65,2.65V306a2.66,2.66,0,0,1-2.65,2.66" transform="translate(-550.7 -274.93)"/><rect class="cls-4" x="32.58" y="53.38" width="74.14" height="445.97"/><rect class="cls-1" x="30.38" y="496.64" width="78.54" height="12.65"/><path class="cls-2" d="M670.45,791.13H669L659.62,780H581.08l-9.39,11.12h-1.43a19.55,19.55,0,0,0-19.56,19.55H690a19.55,19.55,0,0,0-19.55-19.55" transform="translate(-550.7 -274.93)"/><path class="cls-3" d="M595.93,762.13h0a5.48,5.48,0,0,1-5.48-5.48V341.42a5.49,5.49,0,1,1,11,0V756.65a5.48,5.48,0,0,1-5.49,5.48" transform="translate(-550.7 -274.93)"/><path class="cls-3" d="M620.35,762.13h0a5.48,5.48,0,0,1-5.49-5.48V341.42a5.49,5.49,0,1,1,11,0V756.65a5.48,5.48,0,0,1-5.49,5.48" transform="translate(-550.7 -274.93)"/><path class="cls-3" d="M644.77,762.13h0a5.48,5.48,0,0,1-5.49-5.48V341.42a5.49,5.49,0,0,1,11,0V756.65a5.48,5.48,0,0,1-5.49,5.48" transform="translate(-550.7 -274.93)"/></svg>