<svg data-name="Ebene 1" xmlns="http://www.w3.org/2000/svg" viewBox="0 0 920.81 330.44">
  <path d="M139.11 303.68a41.24 41.24 0 00-3.1-19c-3.89-9.38-15.65-13.42-15.65-13.42s-2.84 13.55 2.69 22.47c1.79 2.88 5.18 5.7 8.36 7.94a143.83 143.83 0 01-16.79-6 40.25 40.25 0 00.26-18.91c-2.16-9.71-12.83-15.62-12.83-15.62s-5 12.6-1.21 22.15c1.25 3.12 4.1 6.48 6.82 9.19-3.3-1.61-6.69-3.4-10.16-5.42q-2.85-1.56-5.72-3.37a39.51 39.51 0 003.56-18.4c-.44-9.74-9.72-17.25-9.72-17.25s-7 11.3-4.95 21.16c.72 3.47 3.18 7.5 5.49 10.71a132.66 132.66 0 01-14.65-12.25 38.68 38.68 0 006.6-17.22c1.25-9.47-6.44-18.31-6.44-18.31s-8.69 9.71-8.37 19.59c.11 3.41 1.74 7.62 3.39 11.08a154.74 154.74 0 01-12.13-14.6 37.9 37.9 0 009.15-15.33c2.81-8.94-3.11-18.77-3.11-18.77s-10.09 7.9-11.49 17.52c-.45 3.14.29 7.21 1.23 10.71a158.59 158.59 0 01-9.2-15.82 37.2 37.2 0 0011.55-13.33c4.23-8.14.2-18.63.2-18.63s-11 5.9-14 14.92c-1 3.11-.94 7.44-.58 11.1a144.8 144.8 0 01-6.61-17.63 36.38 36.38 0 0013.61-11c5.47-7.14 3.36-18 3.36-18s-11.66 3.83-16 12c-1.61 3-2.25 7.57-2.5 11.3A131.39 131.39 0 0126.71 178a35.53 35.53 0 0015.11-8.3c6.5-6 6.3-16.76 6.3-16.76s-11.9 1.7-17.52 8.88c-2.09 2.65-3.49 7-4.37 10.58a130.58 130.58 0 01-.26-20.44 34.75 34.75 0 0016.23-5.46c7.29-4.65 8.94-15.1 8.94-15.1s-11.78-.4-18.43 5.6c-2.66 2.39-4.9 6.82-6.35 10.26a142.75 142.75 0 013.8-21.27 34.28 34.28 0 0016.55-2.52c7.82-3.25 11.19-13.06 11.19-13.06s-11.3-2.37-18.74 2.26c-2.88 1.79-5.7 5.5-7.67 8.52a154.56 154.56 0 017.41-19.95 33.49 33.49 0 0016.39.39c8.11-1.81 13-10.7 13-10.7s-10.49-4.21-18.46-1c-3.1 1.24-6.48 4.38-8.9 7a153.51 153.51 0 0110.7-18.5 32.72 32.72 0 0016 3.3c8.12-.36 14.38-8.11 14.38-8.11s-9.41-5.85-17.64-4.12c-3.55.75-7.82 3.68-10.64 5.87a135.37 135.37 0 0114.28-17 32 32 0 0015.16 6.1c7.9 1 15.27-5.38 15.27-5.38s-8.1-7.25-16.34-7c-3.9.13-9.09 2.64-12.12 4.32a104.08 104.08 0 018.43-7.31c3.18-2.66 6.33-5.06 9.42-7.25a31.35 31.35 0 0013.56 8.42c7.45 2.34 15.65-2.59 15.65-2.59s-6.59-8.37-14.58-9.51c-3.73-.54-9.06.95-12.29 2a148.79 148.79 0 0119.49-11.28 30.44 30.44 0 0011.79 10.68c6.8 3.53 15.55.17 15.55.17s-4.94-9.2-12.45-11.67c-3.93-1.28-10.21-.47-13.29.06a142.33 142.33 0 0113.58-5.49c1.61.79 6.91 3.08 11.7 1.43a23.49 23.49 0 0010.71-7.29s-7.39-2.83-11.79-2.09c-5.5.94-10 6.3-10.93 7.46-3.05 1-6.7 2.23-10.81 3.94 2.65-1.82 7.51-5.48 9.38-9 3.71-7 .87-17 .87-17S115.33 3.74 112.89 11a30.48 30.48 0 00-1.06 15.95A145.42 145.42 0 0091.7 37.64c2.4-2.41 6.19-6.61 7.36-10.26 2.48-7.69-2.15-17.28-2.15-17.28s-8 5.2-9.2 12.93A31.14 31.14 0 0089.47 39c-3.91 2.58-7.93 5.48-12 8.78-1.82 1.37-3.62 2.84-5.42 4.39 1.93-2.9 4.31-7.06 4.78-10.44 1.13-8.17-5.22-17-5.22-17s-7.15 6.65-7 14.62a31.88 31.88 0 004.36 15.52 130.89 130.89 0 00-14.49 16c1.36-3.22 2.86-7.54 2.73-10.85-.31-8.4-8.27-16.13-8.27-16.13s-6 7.94-4.39 15.92a32.69 32.69 0 007.12 14.81 154.32 154.32 0 00-11.56 18.76c.82-3.5 1.62-8.26.89-11.64-1.8-8.4-11.16-14.76-11.16-14.76s-4.63 9.06-1.6 16.78a33.34 33.34 0 009.82 13.66 157 157 0 00-8 19.59c.16-3.55 0-8-1.21-11-3.3-8.11-13.83-12.85-13.83-12.85s-3 9.92 1.37 17.15a34.18 34.18 0 0012.07 11.86 145.11 145.11 0 00-4.3 19.54c-.52-3.32-1.42-7.07-3-9.57-4.75-7.56-16.17-10.45-16.17-10.45s-1.31 10.5 4.41 17a34.93 34.93 0 0013.9 9.67 135.6 135.6 0 00-.54 19.58c-1.1-3.2-2.65-6.73-4.62-8.91-6.12-6.77-18.11-7.65-18.11-7.65s.55 10.79 7.44 16.29a35.58 35.58 0 0015.77 7.26 133.09 133.09 0 002.5 18.4c-1.65-2.94-3.78-6.07-6.08-7.87C12.28 179.74.11 181 .11 181s2.46 10.74 10.36 15a36.4 36.4 0 0017 4.5 146.83 146.83 0 005.89 17.62c-2.2-2.69-4.92-5.53-7.6-6.95-8.4-4.44-20.44-1-20.44-1s4.38 10.36 13.08 13.29A37.21 37.21 0 0036.27 225a156.85 156.85 0 008.91 16.49c-2.72-2.37-6-4.8-9-5.76-9.22-3-20.72 2.59-20.72 2.59s6.24 9.62 15.5 11a38.1 38.1 0 0018.28-1.66 160 160 0 0011 14.2c-3-1.71-6.34-3.3-9.25-3.7-9.79-1.36-20.36 6.27-20.36 6.27s8 8.57 17.53 8.34a38.8 38.8 0 0017.7-4.77 141.37 141.37 0 0012.63 11.59 26.81 26.81 0 00-9.1-1.78c-10.08.38-19.36 9.91-19.36 9.91S59.57 295 69.11 293a39.6 39.6 0 0016.85-7.77c3.05 2.1 6.11 4 9.17 5.7q2.9 1.72 5.73 3.25a28.19 28.19 0 00-9.86-.24c-10.06 2.16-17.69 13.39-17.69 13.39s10.86 5.55 20.13 1.91a40.25 40.25 0 0015.67-10.89 150 150 0 0015.74 6.33 28.48 28.48 0 00-9.77 1.5c-9.73 4-15.41 16.59-15.41 16.59s11.9 3.65 20.57-1.64a41.31 41.31 0 0013.77-13.69c13.92 3.69 22.5 4.24 22.5 4.24l.25-2.5.26-2.5a131.88 131.88 0 01-17.91-3zM910.38 196c7.9-4.31 10.36-15 10.36-15s-12.2-1.24-19.55 4.47c-2.3 1.8-4.43 4.93-6.08 7.87a133.09 133.09 0 002.5-18.4 35.51 35.51 0 0015.76-7.26c6.9-5.5 7.45-16.29 7.45-16.29s-12 .88-18.11 7.65c-2 2.19-3.52 5.71-4.62 8.91a134.19 134.19 0 00-.54-19.58 34.93 34.93 0 0013.9-9.67c5.72-6.48 4.41-17 4.41-17s-11.42 2.89-16.17 10.45c-1.56 2.5-2.46 6.25-3 9.57a145.11 145.11 0 00-4.3-19.54 34.18 34.18 0 0012.07-11.86c4.42-7.23 1.37-17.15 1.37-17.15s-10.53 4.74-13.84 12.85c-1.22 3-1.36 7.44-1.2 11a157 157 0 00-8-19.59 33.34 33.34 0 009.82-13.66c3-7.72-1.6-16.78-1.6-16.78s-9.35 6.36-11.16 14.76c-.73 3.38.07 8.15.89 11.65a154.45 154.45 0 00-11.63-18.75 32.69 32.69 0 007.12-14.81c1.6-8-4.39-15.92-4.39-15.92s-8 7.73-8.28 16.13c-.12 3.31 1.38 7.63 2.75 10.85a132.59 132.59 0 00-14.5-16 31.88 31.88 0 004.36-15.52c.19-8-7-14.62-7-14.62s-6.36 8.81-5.23 17c.47 3.38 2.85 7.54 4.78 10.44-1.8-1.55-3.6-3-5.42-4.39-4.08-3.3-8.1-6.2-12-8.78a31.1 31.1 0 001.72-16.09c-1.17-7.73-9.2-12.93-9.2-12.93s-4.64 9.59-2.16 17.28c1.18 3.65 5 7.85 7.36 10.26a144.91 144.91 0 00-20.14-10.69 30.32 30.32 0 00-1.05-15.95C805.39 3.65 796.75 0 796.75 0s-2.83 10 .87 17c1.87 3.55 6.73 7.21 9.38 9-4.11-1.71-7.76-3-10.82-3.94-.92-1.16-5.42-6.52-10.92-7.46-4.4-.74-11.79 2.09-11.79 2.09a23.49 23.49 0 0010.71 7.29c4.8 1.65 10.1-.64 11.7-1.43a143.44 143.44 0 0113.59 5.49c-3.09-.53-9.37-1.34-13.3-.06-7.52 2.47-12.45 11.67-12.45 11.67s8.75 3.36 15.55-.17a30.44 30.44 0 0011.84-10.61 148.79 148.79 0 0119.49 11.28c-3.23-1.09-8.55-2.59-12.29-2-8 1.14-14.58 9.51-14.58 9.51s8.2 4.93 15.66 2.59a31.29 31.29 0 0013.55-8.42c3.09 2.19 6.24 4.59 9.43 7.25a107.6 107.6 0 018.43 7.31c-3-1.68-8.22-4.19-12.14-4.32-8.23-.27-16.33 7-16.33 7s7.37 6.41 15.27 5.38a31.85 31.85 0 0015.16-6.11 136.21 136.21 0 0114.28 17c-2.81-2.19-7.08-5.12-10.64-5.87-8.23-1.73-17.64 4.12-17.64 4.12s6.26 7.75 14.38 8.11a32.69 32.69 0 0016-3.3 153.51 153.51 0 0110.7 18.5c-2.42-2.59-5.8-5.73-8.9-7-8-3.2-18.47 1-18.47 1s4.93 8.89 13 10.7a33.48 33.48 0 0016.39-.39 153.1 153.1 0 017.41 19.95c-2-3-4.79-6.73-7.68-8.52-7.43-4.63-18.73-2.26-18.73-2.26s3.37 9.81 11.19 13.06a34.28 34.28 0 0016.55 2.52 142.75 142.75 0 013.8 21.27c-1.45-3.43-3.69-7.87-6.35-10.26-6.65-6-18.43-5.58-18.43-5.58s1.65 10.45 8.94 15.1a34.78 34.78 0 0016.23 5.46 130.58 130.58 0 01-.26 20.44c-.88-3.57-2.28-7.93-4.36-10.58-5.63-7.18-17.53-8.88-17.53-8.88s-.2 10.79 6.3 16.76a35.53 35.53 0 0015.17 8.31 131.39 131.39 0 01-3.46 19.35c-.24-3.73-.89-8.29-2.5-11.3-4.38-8.2-16-12-16-12s-2.11 10.82 3.36 18a36.38 36.38 0 0013.61 11 144.8 144.8 0 01-6.61 17.63c.36-3.66.45-8-.58-11.1-3-9-14-14.92-14-14.92s-4 10.49.2 18.63a37.2 37.2 0 0011.55 13.33 154.8 154.8 0 01-9.2 15.82c.94-3.5 1.68-7.57 1.23-10.71-1.37-9.59-11.41-17.48-11.41-17.48s-5.92 9.83-3.11 18.77a37.9 37.9 0 009.15 15.33 153.34 153.34 0 01-12.13 14.59c1.65-3.45 3.28-7.66 3.39-11.07.32-9.88-8.38-19.59-8.38-19.59s-7.67 8.84-6.44 18.31a38.78 38.78 0 006.61 17.22A132.66 132.66 0 01834.71 280c2.31-3.21 4.77-7.24 5.49-10.71 2.07-9.86-5-21.16-5-21.16s-9.28 7.51-9.72 17.25a39.51 39.51 0 003.56 18.4q-2.87 1.82-5.73 3.37c-3.46 2-6.85 3.81-10.15 5.42 2.72-2.71 5.57-6.07 6.82-9.19 3.83-9.55-1.21-22.15-1.21-22.15s-10.66 5.86-12.79 15.57a40.35 40.35 0 00.27 18.91 143.83 143.83 0 01-16.79 6c3.18-2.24 6.57-5.06 8.35-7.94 5.54-8.92 2.7-22.47 2.7-22.47s-11.76 4-15.65 13.42a41.24 41.24 0 00-3.1 19 131.64 131.64 0 01-17.95 3l.25 2.5.26 2.5s8.57-.55 22.49-4.24a41.31 41.31 0 0013.77 13.69c8.67 5.29 20.57 1.64 20.57 1.64s-5.68-12.63-15.41-16.59a28.48 28.48 0 00-9.77-1.5 150 150 0 0015.74-6.33 40.25 40.25 0 0015.65 10.92c9.27 3.64 20.13-1.91 20.13-1.91s-7.63-11.23-17.69-13.39a28.26 28.26 0 00-9.87.24q2.85-1.53 5.74-3.25c3.05-1.69 6.12-3.6 9.16-5.7a39.65 39.65 0 0016.86 7.77c9.56 1.93 19.1-5.27 19.1-5.27s-9.28-9.53-19.36-9.91a26.81 26.81 0 00-9.1 1.78A144.27 144.27 0 00854.97 268a38.71 38.71 0 0017.74 4.73c9.56.23 17.53-8.34 17.53-8.34s-10.57-7.63-20.36-6.27c-2.91.4-6.29 2-9.26 3.7a158.17 158.17 0 0011-14.2 38.08 38.08 0 0018.28 1.66c9.27-1.41 15.5-11 15.5-11s-11.5-5.56-20.72-2.59c-3 1-6.29 3.4-9 5.76a158.71 158.71 0 008.91-16.49 37.17 37.17 0 0017.9-1.51c8.71-2.93 13.09-13.29 13.09-13.29s-12-3.41-20.44 1c-2.68 1.42-5.4 4.26-7.6 6.95a146.83 146.83 0 005.89-17.62 36.4 36.4 0 0016.95-4.49z"/>
  <text class="roman" transform="translate(231.5 110.39)" font-family="'Spectral SC'" font-weight="300" font-size="129" >
    R<tspan x="82.17" y="0" letter-spacing="0">o</tspan><tspan x="172.09" y="0">man</tspan><tspan x="-106.55" y="118">Numerals</tspan>
  </text>
  <text class="calculator" transform="translate(299.37 312.28)" font-size="67" font-family="'Roboto'" font-weight="300" letter-spacing=".05em" font-weight="300">
    calcula<tspan x="231.09" y="0" letter-spacing=".04em">t</tspan><tspan x="255.31" y="0">or</tspan>
  </text>
</svg>
